<?xml version="1.0" encoding="UTF-8"?>
<svg version="1.1" viewBox="0 0 248 30" xmlns="http://www.w3.org/2000/svg">
<title>Logo/Wordmark/White</title>
<desc>Created with Sketch.</desc>
<g fill="none" fill-rule="evenodd">
<rect width="248" height="30"/>
<g fill="#fff">
<path d="m15.843 19.869c-0.88452 4.7071-4.4129 9.9987-9.929 9.9987-7.9781 0-5.9942-9.3755-4.7419-15.219 1.2135-5.6632 3.6406-13.682 10.955-13.682 4.9665 0 6.6194 3.9368 5.7 8.6052h-2.3884c0.44129-3.271-0.11226-6.4723-3.8265-6.4723-5.8084 0-7.3897 8.3845-8.16 12.097-0.88258 4.229-2.8703 12.538 3.1974 12.538 4.1187 0 5.9574-4.4826 6.8032-7.8658h2.3903z"/>
<path d="m30.59 18.58l-0.66194-13.934h-0.075484l-6.6174 13.934h7.3548zm1.3239-16.951l1.5426 27.577h-2.4252l-0.36968-8.4929h-8.3806l-4.0452 8.4929h-2.3168l13.237-27.577h2.7581z"/>
<path d="m41.77 14.097h4.1903c0.80903 0 4.9297-0.29419 5.9961-5.2239 0.84387-4.0413-0.77419-5.1116-4.5252-5.1116h-3.4548l-2.2065 10.335zm-0.44129 2.1329l-2.7581 12.977h-2.3903l5.8471-27.577h5.3323c5.0361 0 8.1987 1.469 7.0239 7.0606-0.59032 2.6845-2.3923 5.8452-5.4445 6.4723v0.071613c3.0174 0.80903 2.9419 3.2729 2.2432 6.7277-0.22065 1.3239-1.4342 6.1781-0.22065 6.9155l-0.071613 0.32903h-2.6129c-0.55161-2.3187 0.55161-7.0239 0.80903-9.0426 0.55161-3.6794-2.1697-3.9348-5.2935-3.9348h-2.4639z"/>
<polygon points="53.98 29.206 59.828 1.6295 72.327 1.6295 71.886 3.7624 61.775 3.7624 59.679 13.691 68.872 13.691 68.392 15.824 59.2 15.824 56.81 27.073 67.107 27.073 66.666 29.206"/>
<polygon points="70.307 29.206 76.154 1.6295 88.654 1.6295 88.212 3.7624 78.101 3.7624 76.005 13.691 85.199 13.691 84.719 15.824 75.527 15.824 73.137 27.073 83.434 27.073 82.992 29.206"/>
<path d="m92.076 14.097h4.1923c0.80903 0 4.9258-0.29419 5.9923-5.2239 0.84581-4.0413-0.77226-5.1116-4.5213-5.1116h-3.4568l-2.2065 10.335zm-0.44323 2.1329l-2.7542 12.977h-2.3923l5.8471-27.577h5.3323c5.0361 0 8.1987 1.469 7.0219 7.0606-0.58839 2.6845-2.3903 5.8452-5.4406 6.4723v0.071613c3.0135 0.80903 2.9419 3.2729 2.2413 6.7277-0.22065 1.3239-1.4323 6.1781-0.22065 6.9155l-0.073548 0.32903h-2.611c-0.54968-2.3187 0.55161-7.0239 0.80903-9.0426 0.55161-3.6794-2.1677-3.9348-5.2935-3.9348h-2.4658z"/>
<polygon points="104.36 29.206 110.2 1.6295 125.43 1.6295 124.29 7.1456 115.54 7.1456 114.47 12.037 122.52 12.037 121.35 17.553 113.29 17.553 110.83 29.206"/>
<path d="m137.27 9.6472c0.36968-1.6935 0.66387-3.7161-1.471-3.7161-2.0574 0-2.7561 2.0226-3.1239 3.7161l-2.3903 11.323c-0.36774 1.5832-0.58645 3.9348 1.5077 3.9348 2.0961 0 2.7213-2.3516 3.089-3.9348l2.3884-11.323zm4.1923 10.773c-1.3239 6.211-4.1923 9.4471-10.736 9.4471s-8.1252-3.2361-6.8032-9.4471l2.3923-11.216c1.1032-5.2955 4.889-8.2355 10.55-8.2355 5.6632 0 8.0903 2.94 6.9871 8.2355l-2.3903 11.216z"/>
<path d="m148.41 1.6293h6.4723l-4.4129 20.814c-0.29419 1.3239-0.10839 2.46 1.7284 2.46 1.6916 0 2.5006-1.469 2.7581-2.6458l4.3761-20.628h6.4703l-4.2271 19.966c-0.9929 4.6703-3.8613 8.2723-10.481 8.2723-5.4774 0-8.1252-2.609-6.9116-8.2723l4.2271-19.966z"/>
<polygon points="171.95 13.764 171.88 13.839 169.19 29.207 163.05 29.207 168.9 1.6283 175.55 1.6283 177.28 17.037 177.39 17.037 180.04 1.6283 186.18 1.6283 180.33 29.207 173.71 29.207"/>
<path d="m191.14 24.243c4.2658 0.29419 4.6703-1.471 5.3323-5.1484l1.949-9.0077c0.62323-3.2361-0.40452-3.4181-3.5323-3.4935l-3.749 17.65zm-7.5387 4.9626l5.849-27.577h7.0219c2.3535 0 5.1852 0.075484 7.0219 1.289 2.1697 1.471 2.0226 4.1555 1.471 6.8013l-2.609 12.244c-0.6271 2.76-1.9123 4.7826-4.0452 5.9574-1.9123 1.1052-4.0084 1.2852-5.9961 1.2852h-8.7135z"/>
<path d="m213.76 13.359h2.2045c1.8755 0 2.6826-1.7284 3.0155-3.4181 0.70065-3.2729-0.62516-3.42-3.7877-3.3484l-1.4323 6.7665zm-3.3832 15.848h-6.4723l5.8471-27.579h9.449c5.2955 0 7.5019 2.1329 6.3232 7.6142-0.62322 2.9419-1.7652 5.0361-4.7419 6.2865v0.071613c1.6916 0.40452 2.7194 1.6568 2.4271 3.569-0.29419 2.2045-1.2503 6.9484-1.2503 8.7135 0.071613 0.36581 0.18387 0.69871 0.40452 0.95613l-0.075484 0.36774h-7.0568c-0.075484-0.51484-0.11226-1.0297-0.038709-1.5813 0.40452-2.4271 1.0297-4.7071 1.2135-6.3968 0.18581-1.6935-0.10839-2.7968-1.5794-2.9071h-2.1329l-2.3168 10.885z"/>
<polygon points="235.53 10.638 235.6 10.638 240.82 1.6299 247.3 1.6299 237.26 17.623 234.79 29.207 228.32 29.207 230.79 17.623 227.66 1.6299 234.21 1.6299"/>
</g>
</g>
</svg>
